<?xml version="1.0" encoding="utf-8"?>
<!-- Generator: Adobe Illustrator 24.0.0, SVG Export Plug-In . SVG Version: 6.00 Build 0)  -->
<svg version="1.1" id="Layer_1" xmlns="http://www.w3.org/2000/svg" xmlns:xlink="http://www.w3.org/1999/xlink" x="0px" y="0px"
	 viewBox="0 0 1426.7 319.1" style="enable-background:new 0 0 1426.7 319.1;" xml:space="preserve">
<style type="text/css">
	.st0{fill:url(#SVGID_1_);}
	.st1{fill:url(#SVGID_2_);filter:url(#Adobe_OpacityMaskFilter);}
	.st2{mask:url(#id0_1_);fill:#021B8D;}
	.st3{fill:url(#SVGID_3_);}
	.st4{fill:url(#SVGID_4_);filter:url(#Adobe_OpacityMaskFilter_1_);}
	.st5{mask:url(#id2_2_);fill:#8EFFC1;}
	.st6{fill:url(#SVGID_5_);}
	.st7{fill:url(#SVGID_6_);filter:url(#Adobe_OpacityMaskFilter_2_);}
	.st8{mask:url(#id4_2_);fill:#021B8D;}
	.st9{fill:url(#SVGID_7_);filter:url(#Adobe_OpacityMaskFilter_3_);}
	.st10{mask:url(#id6_2_);fill:#021B8D;}
	.st11{fill:none;}
	.st12{fill:url(#SVGID_8_);}
	.st13{fill:url(#SVGID_9_);filter:url(#Adobe_OpacityMaskFilter_4_);}
	.st14{mask:url(#id24_2_);fill:#021B8D;}
	.st15{fill:url(#SVGID_10_);}
	.st16{fill:url(#SVGID_11_);}
	.st17{fill:url(#SVGID_12_);}
	.st18{fill:url(#SVGID_13_);filter:url(#Adobe_OpacityMaskFilter_5_);}
	.st19{mask:url(#id2_1_);fill:#8EFFC1;}
	.st20{fill:url(#SVGID_14_);}
	.st21{fill:url(#SVGID_15_);filter:url(#Adobe_OpacityMaskFilter_6_);}
	.st22{mask:url(#id4_1_);fill:#021B8D;}
	.st23{fill:url(#SVGID_16_);filter:url(#Adobe_OpacityMaskFilter_7_);}
	.st24{mask:url(#id6_1_);fill:#021B8D;}
	.st25{fill:url(#SVGID_17_);}
	.st26{fill:url(#SVGID_18_);filter:url(#Adobe_OpacityMaskFilter_8_);}
	.st27{mask:url(#id8_1_);fill:#021B8D;}
	.st28{fill:url(#SVGID_19_);filter:url(#Adobe_OpacityMaskFilter_9_);}
	.st29{mask:url(#id10_1_);fill:#021B8D;}
	.st30{fill:url(#SVGID_20_);filter:url(#Adobe_OpacityMaskFilter_10_);}
	.st31{mask:url(#id12_1_);fill:#8EFFC1;}
	.st32{fill:url(#SVGID_21_);filter:url(#Adobe_OpacityMaskFilter_11_);}
	.st33{mask:url(#id14_1_);fill:#8EFFC1;}
	.st34{fill:url(#SVGID_22_);filter:url(#Adobe_OpacityMaskFilter_12_);}
	.st35{mask:url(#id24_1_);fill:#021B8D;}
	.st36{fill:url(#SVGID_23_);}
	.st37{fill:#333333;}
</style>
<linearGradient id="SVGID_1_" gradientUnits="userSpaceOnUse" x1="142.4863" y1="90.7986" x2="142.4964" y2="249.8186" gradientTransform="matrix(1 0 0 -1 0 319.1607)">
	<stop  offset="0" style="stop-color:#0131B9"/>
	<stop  offset="0.6588" style="stop-color:#00BFFE"/>
	<stop  offset="1" style="stop-color:#00D8ED"/>
</linearGradient>
<path class="st0" d="M69.6,115.1v89c0-13.4,11-24.4,24.4-24.4H191c13.1,0,23.9,10.4,24.4,23.4c0,0.1,0,0.1,0,0.2v-87.4
	c-1,13.1-10.4,23.7-24.4,23.7H93.9C80.4,139.4,69.6,128.6,69.6,115.1L69.6,115.1z"/>
<defs>
	<filter id="Adobe_OpacityMaskFilter" filterUnits="userSpaceOnUse" x="69.6" y="159.6" width="145.8" height="44.5">
		<feColorMatrix  type="matrix" values="1 0 0 0 0  0 1 0 0 0  0 0 1 0 0  0 0 0 1 0"/>
	</filter>
</defs>
<mask maskUnits="userSpaceOnUse" x="69.6" y="159.6" width="145.8" height="44.5" id="id0_1_">
	
		<linearGradient id="SVGID_2_" gradientUnits="userSpaceOnUse" x1="142.4907" y1="-74.8497" x2="142.4907" y2="191.0103" gradientTransform="matrix(1 0 0 -1 0 319.1607)">
		<stop  offset="0" style="stop-color:#FFFFFF"/>
		<stop  offset="1" style="stop-color:#FFFFFF;stop-opacity:0"/>
	</linearGradient>
	<rect x="68.6" y="158.5" class="st1" width="147.9" height="46.6"/>
</mask>
<path class="st2" d="M69.6,159.6v44.5c0-13.4,11-24.4,24.4-24.4H191c13.1,0,23.9,10.4,24.4,23.4c0,0.1,0,0.1,0,0.2v-43.7L69.6,159.6
	L69.6,159.6z"/>
<g>
	
		<linearGradient id="SVGID_3_" gradientUnits="userSpaceOnUse" x1="140.8407" y1="74.4502" x2="140.8407" y2="339.7603" gradientTransform="matrix(1 0 0 1 0 -7.03)">
		<stop  offset="0" style="stop-color:#0131B9"/>
		<stop  offset="0.502" style="stop-color:#0276DB"/>
		<stop  offset="1" style="stop-color:#8EFFC1"/>
	</linearGradient>
	<path class="st3" d="M110.8,318.8c11,0,20.1-9,20.1-20.1v-64.6c0-13.1,19.9-13.1,19.9,0v64.6c0,11,9,20.1,20.1,20.1
		s20.1-9,20.1-20.1v-75.9c0-11-9-20.1-20.1-20.1h-60c-11,0-20.1,9-20.1,20.1v75.9C90.8,309.8,99.8,318.8,110.8,318.8z"/>
	<defs>
		<filter id="Adobe_OpacityMaskFilter_1_" filterUnits="userSpaceOnUse" x="90.8" y="202.8" width="50.3" height="116">
			<feColorMatrix  type="matrix" values="1 0 0 0 0  0 1 0 0 0  0 0 1 0 0  0 0 0 1 0"/>
		</filter>
	</defs>
	<mask maskUnits="userSpaceOnUse" x="90.8" y="202.8" width="50.3" height="116" id="id2_2_">
		
			<linearGradient id="SVGID_4_" gradientUnits="userSpaceOnUse" x1="115.9507" y1="422.4002" x2="115.9507" y2="221.7802" gradientTransform="matrix(1 0 0 1 0 -7.03)">
			<stop  offset="0" style="stop-color:#FFFFFF"/>
			<stop  offset="1" style="stop-color:#FFFFFF;stop-opacity:0"/>
		</linearGradient>
		<rect x="89.7" y="201.8" class="st4" width="52.4" height="118.1"/>
	</mask>
	<path class="st5" d="M141.1,202.8h-30.3c-11,0-20.1,9-20.1,20.1v75.9c0,11,9,20.1,20.1,20.1v-85.7
		C110.8,216.4,124.5,202.8,141.1,202.8L141.1,202.8z"/>
	
		<linearGradient id="SVGID_5_" gradientUnits="userSpaceOnUse" x1="160.9007" y1="181.5603" x2="160.9007" y2="358.1403" gradientTransform="matrix(1 0 0 1 0 -7.03)">
		<stop  offset="0" style="stop-color:#0131B9"/>
		<stop  offset="0.6588" style="stop-color:#00BFFE"/>
		<stop  offset="1" style="stop-color:#00D8ED"/>
	</linearGradient>
	<path class="st6" d="M130.9,234.1c0-5.5,4.5-9.9,9.9-9.9s9.9,4.5,9.9,9.9v64.6c0,11,9,20.1,20.1,20.1l0,0c11,0,20.1-9,20.1-20.1
		v-75.9c0-11-9-20.1-20.1-20.1h-13.1c-14.8,0-26.8,12-26.8,26.8L130.9,234.1L130.9,234.1z"/>
	<defs>
		<filter id="Adobe_OpacityMaskFilter_2_" filterUnits="userSpaceOnUse" x="130.9" y="204.1" width="39.9" height="114.7">
			<feColorMatrix  type="matrix" values="1 0 0 0 0  0 1 0 0 0  0 0 1 0 0  0 0 0 1 0"/>
		</filter>
	</defs>
	<mask maskUnits="userSpaceOnUse" x="130.9" y="204.1" width="39.9" height="114.7" id="id4_2_">
		
			<linearGradient id="SVGID_6_" gradientUnits="userSpaceOnUse" x1="150.8707" y1="-33.6097" x2="150.8707" y2="315.9403" gradientTransform="matrix(1 0 0 1 0 -7.03)">
			<stop  offset="0" style="stop-color:#FFFFFF"/>
			<stop  offset="1" style="stop-color:#FFFFFF;stop-opacity:0"/>
		</linearGradient>
		<rect x="129.9" y="203.1" class="st7" width="42" height="116.8"/>
	</mask>
	<path class="st8" d="M130.9,234.1c0-5.5,4.5-9.9,9.9-9.9s9.9,4.5,9.9,9.9v64.6c0,11,9,20.1,20.1,20.1l0,0v-85.7
		c0-13.6-9.1-25.2-21.5-29c-10.7,3.5-18.5,13.6-18.5,25.5V234.1z"/>
	<defs>
		<filter id="Adobe_OpacityMaskFilter_3_" filterUnits="userSpaceOnUse" x="130.9" y="202.8" width="37.6" height="31.3">
			<feColorMatrix  type="matrix" values="1 0 0 0 0  0 1 0 0 0  0 0 1 0 0  0 0 0 1 0"/>
		</filter>
	</defs>
	<mask maskUnits="userSpaceOnUse" x="130.9" y="202.8" width="37.6" height="31.3" id="id6_2_">
		
			<linearGradient id="SVGID_7_" gradientUnits="userSpaceOnUse" x1="149.7257" y1="78.3002" x2="149.7257" y2="253.9002" gradientTransform="matrix(1 0 0 1 0 -7.03)">
			<stop  offset="0" style="stop-color:#FFFFFF"/>
			<stop  offset="1" style="stop-color:#FFFFFF;stop-opacity:0"/>
		</linearGradient>
		<rect x="129.9" y="201.8" class="st9" width="39.7" height="33.4"/>
	</mask>
	<path class="st10" d="M130.9,234.1c0-5.5,4.5-9.9,9.9-9.9c1.2,0,2.4,0.2,3.5,0.6l0,0c0-19.4,17.8-21.8,24.2-22h-10.8
		c-14.8,0-26.8,12-26.8,26.8V234.1L130.9,234.1z"/>
</g>
<g>
	<path class="st11" d="M263.8,121.8L263.8,121.8c-11,0-20.1,9-20.1,20.1v35.6c0,11,9,20.1,20.1,20.1l0,0c11,0,20.1-9,20.1-20.1
		v-35.6C283.9,130.8,274.9,121.8,263.8,121.8L263.8,121.8z"/>
	
		<linearGradient id="SVGID_8_" gradientUnits="userSpaceOnUse" x1="-17.4293" y1="159.3714" x2="-89.5492" y2="159.3714" gradientTransform="matrix(-1 0 0 -1 214.2814 319.1607)">
		<stop  offset="0" style="stop-color:#0131B9"/>
		<stop  offset="0.6588" style="stop-color:#00BFFE"/>
		<stop  offset="1" style="stop-color:#00D8ED"/>
	</linearGradient>
	<path class="st12" d="M283.7,144.6c0,7.8,0.9,33.2-1.1,39c-2.1,6.3-6.8,10.7-12.2,12.8c-4.8,1.8-10.2,1.8-14.9-0.5v-0.2v-72
		C267.9,118.1,283.7,125.8,283.7,144.6L283.7,144.6z"/>
	<defs>
		<filter id="Adobe_OpacityMaskFilter_4_" filterUnits="userSpaceOnUse" x="255.5" y="121.9" width="18" height="75.8">
			<feColorMatrix  type="matrix" values="1 0 0 0 0  0 1 0 0 0  0 0 1 0 0  0 0 0 1 0"/>
		</filter>
	</defs>
	<mask maskUnits="userSpaceOnUse" x="255.5" y="121.9" width="18" height="75.8" id="id24_2_">
		
			<linearGradient id="SVGID_9_" gradientUnits="userSpaceOnUse" x1="120.0639" y1="34.1008" x2="-74.3461" y2="177.1208" gradientTransform="matrix(-1 0 0 -1 214.2814 319.1607)">
			<stop  offset="0" style="stop-color:#FFFFFF"/>
			<stop  offset="1" style="stop-color:#FFFFFF;stop-opacity:0"/>
		</linearGradient>
		<rect x="254.5" y="120.9" class="st13" width="20.1" height="77.9"/>
	</mask>
	<path class="st14" d="M263.4,144.6c0,7.8-0.9,33.2,1.1,39c1.7,5,5,8.9,9.1,11.3c-1,0.6-2.1,1.1-3.1,1.5c-4.8,1.8-10.2,1.8-14.9-0.5
		v-0.2v-72c5.9-2.7,12.6-2.3,18,0.9C267.6,128,263.4,134.8,263.4,144.6L263.4,144.6z"/>
</g>
<linearGradient id="SVGID_10_" gradientUnits="userSpaceOnUse" x1="49.5257" y1="-168.7796" x2="49.5257" y2="281.6903" gradientTransform="matrix(1 0 0 -1 0 319.1607)">
	<stop  offset="0" style="stop-color:#0131B9"/>
	<stop  offset="0.502" style="stop-color:#0276DB"/>
	<stop  offset="1" style="stop-color:#8EFFC1"/>
</linearGradient>
<path class="st15" d="M69.6,204.1V81.2c0-11-9-20.1-20.1-20.1c-11,0-20.1,9-20.1,20.1V238c0,11,9,20.1,20.1,20.1
	c11,0,20.1-9,20.1-20.1V204.1z"/>
<linearGradient id="SVGID_11_" gradientUnits="userSpaceOnUse" x1="235.4408" y1="-168.7796" x2="235.4408" y2="281.6903" gradientTransform="matrix(1 0 0 -1 0 319.1607)">
	<stop  offset="0" style="stop-color:#0131B9"/>
	<stop  offset="0.502" style="stop-color:#0276DB"/>
	<stop  offset="1" style="stop-color:#8EFFC1"/>
</linearGradient>
<path class="st16" d="M215.4,115.8v87.4c0-0.1,0-0.1,0-0.2l0,35c0,11,9,20.1,20.1,20.1c11,0,20.1-9,20.1-20.1V81.2
	c0-11-9-20.1-20.1-20.1c-11,0-20.1,9-20.1,20.1L215.4,115.8L215.4,115.8z"/>
<path class="st11" d="M21.1,121.8L21.1,121.8c11,0,20.1,9,20.1,20.1v35.6c0,11-9,20.1-20.1,20.1l0,0c-11,0-20.1-9-20.1-20.1v-35.6
	C1.1,130.8,10.1,121.8,21.1,121.8L21.1,121.8z"/>
<linearGradient id="SVGID_12_" gradientUnits="userSpaceOnUse" x1="140.8407" y1="67.4203" x2="140.8407" y2="332.7304" gradientTransform="matrix(1 0 0 -1 0 319.1607)">
	<stop  offset="0" style="stop-color:#0131B9"/>
	<stop  offset="0.502" style="stop-color:#0276DB"/>
	<stop  offset="1" style="stop-color:#8EFFC1"/>
</linearGradient>
<path class="st17" d="M110.8,0.4c11,0,20.1,9,20.1,20.1V85c0,13.1,19.9,13.1,19.9,0V20.5c0-11,9-20.1,20.1-20.1s20.1,9,20.1,20.1
	v75.9c0,11-9,20.1-20.1,20.1h-60c-11,0-20.1-9-20.1-20.1V20.5C90.8,9.4,99.8,0.4,110.8,0.4z"/>
<defs>
	<filter id="Adobe_OpacityMaskFilter_5_" filterUnits="userSpaceOnUse" x="90.8" y="0.4" width="50.3" height="116">
		<feColorMatrix  type="matrix" values="1 0 0 0 0  0 1 0 0 0  0 0 1 0 0  0 0 0 1 0"/>
	</filter>
</defs>
<mask maskUnits="userSpaceOnUse" x="90.8" y="0.4" width="50.3" height="116" id="id2_1_">
	
		<linearGradient id="SVGID_13_" gradientUnits="userSpaceOnUse" x1="115.9507" y1="415.3703" x2="115.9507" y2="214.7503" gradientTransform="matrix(1 0 0 -1 0 319.1607)">
		<stop  offset="0" style="stop-color:#FFFFFF"/>
		<stop  offset="1" style="stop-color:#FFFFFF;stop-opacity:0"/>
	</linearGradient>
	<rect x="89.7" y="-0.7" class="st18" width="52.4" height="118.1"/>
</mask>
<path class="st19" d="M141.1,116.4h-30.3c-11,0-20.1-9-20.1-20.1V20.5c0-11,9-20.1,20.1-20.1v85.7
	C110.8,102.7,124.5,116.4,141.1,116.4L141.1,116.4z"/>
<linearGradient id="SVGID_14_" gradientUnits="userSpaceOnUse" x1="160.9007" y1="174.5304" x2="160.9007" y2="351.1104" gradientTransform="matrix(1 0 0 -1 0 319.1607)">
	<stop  offset="0" style="stop-color:#0131B9"/>
	<stop  offset="0.6588" style="stop-color:#00BFFE"/>
	<stop  offset="1" style="stop-color:#00D8ED"/>
</linearGradient>
<path class="st20" d="M130.9,85c0,5.5,4.5,9.9,9.9,9.9s9.9-4.5,9.9-9.9V20.5c0-11,9-20.1,20.1-20.1l0,0c11,0,20.1,9,20.1,20.1v75.9
	c0,11-9,20.1-20.1,20.1h-13.1c-14.8,0-26.8-12-26.8-26.8L130.9,85L130.9,85z"/>
<defs>
	<filter id="Adobe_OpacityMaskFilter_6_" filterUnits="userSpaceOnUse" x="130.9" y="0.4" width="39.9" height="114.7">
		<feColorMatrix  type="matrix" values="1 0 0 0 0  0 1 0 0 0  0 0 1 0 0  0 0 0 1 0"/>
	</filter>
</defs>
<mask maskUnits="userSpaceOnUse" x="130.9" y="0.4" width="39.9" height="114.7" id="id4_1_">
	
		<linearGradient id="SVGID_15_" gradientUnits="userSpaceOnUse" x1="150.8707" y1="-40.6396" x2="150.8707" y2="308.9104" gradientTransform="matrix(1 0 0 -1 0 319.1607)">
		<stop  offset="0" style="stop-color:#FFFFFF"/>
		<stop  offset="1" style="stop-color:#FFFFFF;stop-opacity:0"/>
	</linearGradient>
	<rect x="129.9" y="-0.7" class="st21" width="42" height="116.8"/>
</mask>
<path class="st22" d="M130.9,85c0,5.5,4.5,9.9,9.9,9.9s9.9-4.5,9.9-9.9V20.5c0-11,9-20.1,20.1-20.1l0,0v85.7
	c0,13.6-9.1,25.2-21.5,29c-10.7-3.5-18.5-13.6-18.5-25.5V85z"/>
<defs>
	<filter id="Adobe_OpacityMaskFilter_7_" filterUnits="userSpaceOnUse" x="130.9" y="85" width="37.6" height="31.3">
		<feColorMatrix  type="matrix" values="1 0 0 0 0  0 1 0 0 0  0 0 1 0 0  0 0 0 1 0"/>
	</filter>
</defs>
<mask maskUnits="userSpaceOnUse" x="130.9" y="85" width="37.6" height="31.3" id="id6_1_">
	
		<linearGradient id="SVGID_16_" gradientUnits="userSpaceOnUse" x1="149.7257" y1="71.2703" x2="149.7257" y2="246.8703" gradientTransform="matrix(1 0 0 -1 0 319.1607)">
		<stop  offset="0" style="stop-color:#FFFFFF"/>
		<stop  offset="1" style="stop-color:#FFFFFF;stop-opacity:0"/>
	</linearGradient>
	<rect x="129.9" y="84" class="st23" width="39.7" height="33.4"/>
</mask>
<path class="st24" d="M130.9,85c0,5.5,4.5,9.9,9.9,9.9c1.2,0,2.4-0.2,3.5-0.6l0,0c0,19.4,17.8,21.8,24.2,22h-10.8
	c-14.8,0-26.8-12-26.8-26.8V85L130.9,85z"/>
<linearGradient id="SVGID_17_" gradientUnits="userSpaceOnUse" x1="53.2607" y1="159.3714" x2="-18.8593" y2="159.3714" gradientTransform="matrix(1 0 0 -1 0 319.1607)">
	<stop  offset="0" style="stop-color:#0131B9"/>
	<stop  offset="0.6588" style="stop-color:#00BFFE"/>
	<stop  offset="1" style="stop-color:#00D8ED"/>
</linearGradient>
<path class="st25" d="M1.3,144.6c0,7.8-0.9,33.2,1.1,39c2.1,6.3,6.8,10.7,12.2,12.8c4.8,1.8,10.2,1.8,14.9-0.5v-0.2v-72
	C17,118.1,1.3,125.8,1.3,144.6L1.3,144.6z"/>
<defs>
	<filter id="Adobe_OpacityMaskFilter_8_" filterUnits="userSpaceOnUse" x="69.6" y="115.1" width="19.3" height="89">
		<feColorMatrix  type="matrix" values="1 0 0 0 0  0 1 0 0 0  0 0 1 0 0  0 0 0 1 0"/>
	</filter>
</defs>
<mask maskUnits="userSpaceOnUse" x="69.6" y="115.1" width="19.3" height="89" id="id8_1_">
	
		<linearGradient id="SVGID_18_" gradientUnits="userSpaceOnUse" x1="79.2207" y1="-24.9397" x2="79.2207" y2="191.4804" gradientTransform="matrix(1 0 0 -1 0 319.1607)">
		<stop  offset="0" style="stop-color:#FFFFFF"/>
		<stop  offset="1" style="stop-color:#FFFFFF;stop-opacity:0"/>
	</linearGradient>
	<rect x="68.6" y="114.1" class="st26" width="21.3" height="91.1"/>
</mask>
<path class="st27" d="M69.6,115.1v89c0-5.4,1.8-10.4,4.7-14.4c-0.8-13.1-0.3-38.1,14.5-50.6c-1.6-0.4-3.2-0.9-4.7-1.6
	C75.6,133.7,69.6,125.1,69.6,115.1L69.6,115.1z"/>
<defs>
	<filter id="Adobe_OpacityMaskFilter_9_" filterUnits="userSpaceOnUse" x="196.1" y="115.1" width="19.3" height="89">
		<feColorMatrix  type="matrix" values="1 0 0 0 0  0 1 0 0 0  0 0 1 0 0  0 0 0 1 0"/>
	</filter>
</defs>
<mask maskUnits="userSpaceOnUse" x="196.1" y="115.1" width="19.3" height="89" id="id10_1_">
	
		<linearGradient id="SVGID_19_" gradientUnits="userSpaceOnUse" x1="205.7557" y1="-24.9397" x2="205.7557" y2="191.4804" gradientTransform="matrix(1 0 0 -1 0 319.1607)">
		<stop  offset="0" style="stop-color:#FFFFFF"/>
		<stop  offset="1" style="stop-color:#FFFFFF;stop-opacity:0"/>
	</linearGradient>
	<rect x="195.1" y="114.1" class="st28" width="21.4" height="91.1"/>
</mask>
<path class="st29" d="M215.4,115.1v89c0-5.4-1.8-10.4-4.7-14.4c0.8-13.1,0.3-38.1-14.5-50.6c1.6-0.4,3.2-0.9,4.7-1.6
	C209.4,133.7,215.4,125.1,215.4,115.1L215.4,115.1z"/>
<defs>
	<filter id="Adobe_OpacityMaskFilter_10_" filterUnits="userSpaceOnUse" x="29.5" y="61.2" width="20.1" height="196.9">
		<feColorMatrix  type="matrix" values="1 0 0 0 0  0 1 0 0 0  0 0 1 0 0  0 0 0 1 0"/>
	</filter>
</defs>
<mask maskUnits="userSpaceOnUse" x="29.5" y="61.2" width="20.1" height="196.9" id="id12_1_">
	
		<linearGradient id="SVGID_20_" gradientUnits="userSpaceOnUse" x1="39.4907" y1="385.8404" x2="39.4907" y2="79.3704" gradientTransform="matrix(1 0 0 -1 0 319.1607)">
		<stop  offset="0" style="stop-color:#FFFFFF"/>
		<stop  offset="1" style="stop-color:#FFFFFF;stop-opacity:0"/>
	</linearGradient>
	<rect x="28.4" y="60.1" class="st30" width="22.1" height="199"/>
</mask>
<path class="st31" d="M49.5,61.2v196.9c-11,0-20.1-9-20.1-20.1v-42.2v-0.2v-72v-0.1V81.2C29.5,70.2,38.5,61.2,49.5,61.2L49.5,61.2z"
	/>
<defs>
	<filter id="Adobe_OpacityMaskFilter_11_" filterUnits="userSpaceOnUse" x="215.4" y="61.2" width="20.1" height="196.9">
		<feColorMatrix  type="matrix" values="1 0 0 0 0  0 1 0 0 0  0 0 1 0 0  0 0 0 1 0"/>
	</filter>
</defs>
<mask maskUnits="userSpaceOnUse" x="215.4" y="61.2" width="20.1" height="196.9" id="id14_1_">
	
		<linearGradient id="SVGID_21_" gradientUnits="userSpaceOnUse" x1="225.4207" y1="385.8404" x2="225.4207" y2="79.3704" gradientTransform="matrix(1 0 0 -1 0 319.1607)">
		<stop  offset="0" style="stop-color:#FFFFFF"/>
		<stop  offset="1" style="stop-color:#FFFFFF;stop-opacity:0"/>
	</linearGradient>
	<rect x="214.4" y="60.1" class="st32" width="22.1" height="199"/>
</mask>
<path class="st33" d="M235.5,61.2v196.9c-11,0-20.1-9-20.1-20.1v-42.2v-0.2v-72v-0.1V81.2C215.4,70.2,224.4,61.2,235.5,61.2
	L235.5,61.2z"/>
<defs>
	<filter id="Adobe_OpacityMaskFilter_12_" filterUnits="userSpaceOnUse" x="11.5" y="121.9" width="18" height="75.8">
		<feColorMatrix  type="matrix" values="1 0 0 0 0  0 1 0 0 0  0 0 1 0 0  0 0 0 1 0"/>
	</filter>
</defs>
<mask maskUnits="userSpaceOnUse" x="11.5" y="121.9" width="18" height="75.8" id="id24_1_">
	
		<linearGradient id="SVGID_22_" gradientUnits="userSpaceOnUse" x1="190.7539" y1="34.1008" x2="-3.6561" y2="177.1208" gradientTransform="matrix(1 0 0 -1 0 319.1607)">
		<stop  offset="0" style="stop-color:#FFFFFF"/>
		<stop  offset="1" style="stop-color:#FFFFFF;stop-opacity:0"/>
	</linearGradient>
	<rect x="10.4" y="120.9" class="st34" width="20.1" height="77.9"/>
</mask>
<path class="st35" d="M21.6,144.6c0,7.8,0.9,33.2-1.1,39c-1.7,5-5,8.9-9.1,11.3c1,0.6,2.1,1.1,3.1,1.5c4.8,1.8,10.2,1.8,14.9-0.5
	v-0.2v-72c-5.9-2.7-12.6-2.3-18,0.9C17.3,128,21.6,134.8,21.6,144.6L21.6,144.6z"/>
<linearGradient id="SVGID_23_" gradientUnits="userSpaceOnUse" x1="884.2309" y1="2.6503" x2="884.2309" y2="296.5404" gradientTransform="matrix(1 0 0 -1 0 319.1607)">
	<stop  offset="0" style="stop-color:#0131B9"/>
	<stop  offset="0.502" style="stop-color:#0276DB"/>
	<stop  offset="1" style="stop-color:#8EFFC1"/>
</linearGradient>
<path class="st36" d="M361,112V128h31.2v14H361v25.6h-17.8V98.1h51.6v14L361,112L361,112L361,112z M418.2,98.1h17.6v69.6h-17.6V98.1
	z M496.9,112.3v55.3l-17.8,0v-55.3h-20.8V97.9h59.5v14.4L496.9,112.3L496.9,112.3z M588.7,167.6l-32-42.8v42.8h-16.5V98.1h15.5
	l32.1,43v-43h16.5v69.6H588.7z M650.8,112v13.8h33.3v14h-33.3v14h37.8v14l-55.5,0V98.1h54.5v14L650.8,112L650.8,112L650.8,112z
	 M769.1,105l-6.7,13.8c-8.8-5.1-29.8-12.2-29.8-2.2c0,11.9,36.7,5.1,36.7,30.3c0,24.5-38.1,27.5-59.6,10.1l7-13.6
	c12.3,10.9,34.2,14.5,34.2,4.4c0-12.4-36.9-5-36.9-29.6C714,94.4,749.5,92,769.1,105 M847.9,105l-6.7,13.8
	c-8.9-5.2-29.8-12.2-29.8-2.2c0,11.9,36.9,5.1,36.9,30.3c0,24.3-37.8,27.7-59.6,10.1l6.8-13.6c12.1,10.7,34.2,14.6,34.2,4.4
	c0-12.4-36.7-5-36.7-29.6C792.9,94.2,828.6,92.2,847.9,105 M897.4,105.7v61.9l-7.9,0v-61.9h-22.6v-7.7h53.3v7.7L897.4,105.7
	L897.4,105.7z M996.4,167.6v-30.5h-42v30.6l-7.9,0V98.1h7.9v31.4h42V98.1h7.9v69.6H996.4z M1048.2,105.7v22.8h35.2v7.7h-35.2V160
	h40.5v7.5h-48.5V98.1h47.2v7.7L1048.2,105.7L1048.2,105.7z M1146.2,138c12.7,0,19.8-5.6,19.8-16.5c0-19-21.4-15.8-38.3-15.8v32.3
	L1146.2,138L1146.2,138z M1150.9,145.4l-23.2,0.1v22h-7.8V98.1h26.3c17.5,0,27.5,8.5,27.5,23.3c0,11.5-5.6,19.3-15.7,22.6l16.3,23.6
	l-9.1,0L1150.9,145.4L1150.9,145.4z M1231.5,107.2l-15.5,35.2h31.3L1231.5,107.2z M1212.7,150l-7.8,17.6h-8.4l31.2-69.6h8.3
	l31.2,69.6h-8.7l-7.8-17.6H1212.7L1212.7,150z M1300.7,138c16.5,0,37.7,3.2,37.7-16.5c0-18.9-21.4-15.8-37.7-15.8V138z M1318.9,98.1
	c17.1,0,27,8.5,27,23.3c0,15.3-10,24.2-27,24.2h-18.2v22h-7.9V98.1L1318.9,98.1L1318.9,98.1z M1398.8,167.6h-7.8V144l-26.9-46h8.3
	l22.5,36.3l22.2-36.3h8.3l-26.4,45.6L1398.8,167.6L1398.8,167.6z"/>
<path class="st37" d="M366.7,221.6v-15.2l-6.1,13h-3.5l-6.1-13v15.2h-4.7v-22.5h5.8L359,213l6.7-13.8h5.9v22.5H366.7L366.7,221.6z
	 M408.4,203.3v5.1h11.3v4.1h-11.3v5h12.8v4.1h-18v-22.5h17.6v4.1L408.4,203.3L408.4,203.3z M468.1,221.6l-11.2-14.4v14.4h-5v-22.5
	h4.7l11.3,14.4v-14.4h5v22.5H468.1L468.1,221.6z M514.6,203.4v18.2h-5.2v-18.2h-7v-4.3h19.5v4.3H514.6L514.6,203.4z M558.7,204.3
	l-3.7,8.9h7.4L558.7,204.3z M553.3,217.3l-1.8,4.3h-5.4l10-22.5h5.4l10,22.5H566l-1.8-4.3H553.3L553.3,217.3z M605.6,211h4.5
	c3,0,4.7-1.2,4.7-3.9c0-2.5-1.6-3.8-4.7-3.8h-4.5V211L605.6,211z M610.2,199.1c5.9,0,9.4,2.9,9.4,7.7c0,5.4-3.5,8.3-9.4,8.3h-4.7
	v6.5h-5.2v-22.5H610.2z M665.3,221.6v-8.9h-10.6v8.9h-5.2v-22.5h5.2v9.4h10.6v-9.4h5.2v22.5H665.3z M713.4,221.6H708v-7.2l-8.5-15.3
	h5.2l5.9,10.1l5.9-10.1h5.2l-8.3,15.3L713.4,221.6L713.4,221.6z M768.1,201.2l-2,4.3c-2.4-1.4-5.4-2.4-7.2-2.4c-1.6,0-3,0.5-3,1.8
	c0,4.1,12.4,1.8,12.4,9.9c0,4.5-3.9,6.8-9.1,6.8c-3.9,0-7.6-1.4-10.2-3.6l2-4.1c2.4,2.2,5.8,3.4,8.1,3.4c2.2,0,3.5-0.7,3.5-2.2
	c0-4.3-12.4-1.8-12.4-9.7c0-4.1,3.7-6.7,9.1-6.7C762.5,198.9,765.9,199.8,768.1,201.2L768.1,201.2L768.1,201.2z M798.5,199.1h5.2
	v22.5h-5.2V199.1z M855.4,202.7l-3.2,3.6c-1.5-1.8-3.9-2.9-5.9-2.9c-4.1,0-7,2.9-7,6.8c0,3.9,2.9,7,7,7c2,0,4.3-1.1,5.9-2.7l3.2,3.2
	c-2.4,2.5-6.1,4.1-9.4,4.1c-6.9,0-12.3-5.1-12.3-11.7c0-6.5,5.4-11.3,12.4-11.3C849.4,198.9,853,200.4,855.4,202.7L855.4,202.7z
	 M894.9,204.3l-3.7,8.9h7.2L894.9,204.3z M889.3,217.3l-1.6,4.3h-5.6l10.2-22.5h5.4l10,22.5h-5.8l-1.6-4.3H889.3L889.3,217.3z
	 M951.7,217.3v4.3h-15.2v-22.5h5.2v18.2H951.7L951.7,217.3z M1035.9,221.6l-4.7-16l-4.8,16h-5.4l-7.6-22.5h5.6l5,16.9l4.8-16.9h5.2
	l4.8,16.9l4.8-16.9h5.4l-7.6,22.5H1035.9L1035.9,221.6z M1083.1,203.3v5.1h11.3v4.1h-11.3v5h12.8v4.1h-18v-22.5h17.6v4.1
	L1083.1,203.3L1083.1,203.3z M1141.9,217.3v4.3h-15.2v-22.5h5.2v18.2H1141.9L1141.9,217.3z M1186.7,217.3v4.3h-15.2v-22.5h5.2v18.2
	H1186.7z M1221.6,217.5h5.2c2.6,0,4.1-0.9,4.1-2.7c0-1.6-1.5-2.7-4.1-2.7h-5.2V217.5z M1221.6,208.1h5.2c2,0,3.3-0.9,3.3-2.5
	c0-1.4-1.3-2.4-3.3-2.4h-5.2V208.1z M1227.1,199.1c5,0,8.3,2.2,8.3,5.6c0,2.5-1.6,4.3-4.1,5.1c2.9,0.5,4.8,2.7,4.8,5.8
	c0,3.8-3.3,6.1-8.7,6.1h-11.2v-22.5H1227.1L1227.1,199.1z M1271.8,203.3v5.1h11.3v4.1h-11.3v5h12.8v4.1h-18v-22.5h17.6v4.1
	L1271.8,203.3L1271.8,203.3z M1315.3,199.1h5.2v22.5h-5.2V199.1z M1368.5,221.6l-11.3-14.4v14.4h-5v-22.5h4.8l11.3,14.4v-14.4h5
	v22.5H1368.5z M1425.1,210.3v8.7c-2.4,1.8-6.1,3.1-9.4,3.1c-7,0-12.3-5.1-12.3-11.5c0-6.7,5.4-11.5,12.6-11.5c3.5,0,7,1.2,9.3,3.2
	l-2.9,3.6c-1.6-1.4-4.1-2.4-6.3-2.4c-4.1,0-7.2,3.1-7.2,7c0,3.9,3.2,7,7.2,7c1.5,0,3.2-0.5,4.7-1.3v-6L1425.1,210.3L1425.1,210.3
	L1425.1,210.3z"/>
</svg>
